<?xml version="1.0" standalone="no"?>
<!DOCTYPE svg PUBLIC "-//W3C//DTD SVG 20010904//EN"
 "http://www.w3.org/TR/2001/REC-SVG-20010904/DTD/svg10.dtd">
<svg version="1.0" xmlns="http://www.w3.org/2000/svg"
 width="600.000000pt" height="600.000000pt" viewBox="0 0 600.000000 600.000000"
 preserveAspectRatio="xMidYMid meet">
<metadata>
Created by potrace 1.14, written by Peter Selinger 2001-2017
</metadata>
<g transform="translate(0.000000,600.000000) scale(0.100000,-0.100000)"
fill="#000000" stroke="none">
<path d="M2573 4113 l437 -3 0 -495 0 -495 -450 0 -450 0 0 -510 0 -510 1208
2 c879 2 1001 4 450 5 l-758 3 0 500 0 500 445 0 445 0 0 505 0 505 -882 -2
c-486 -2 -686 -4 -445 -5z m999 -194 c-3 -56 -3 -56 29 -63 17 -3 61 -6 96 -6
l65 0 -7 -32 c-4 -18 -10 -36 -14 -40 -3 -4 -39 -2 -79 4 -42 6 -77 7 -82 2
-14 -15 7 -224 29 -287 27 -77 76 -168 117 -216 33 -38 44 -71 25 -71 -25 0
-126 131 -166 215 -51 106 -63 154 -72 276 l-6 92 -116 -6 c-69 -3 -134 -12
-160 -21 -24 -9 -50 -16 -57 -16 -15 0 -18 28 -8 79 6 29 9 31 37 25 16 -3 92
-3 169 1 l140 7 -6 42 c-4 22 -11 45 -17 51 -19 19 -8 26 39 23 l47 -3 -3 -56z
m127 10 c24 -54 21 -71 -7 -51 -29 21 -77 52 -87 56 -14 6 33 46 55 46 12 0
25 -17 39 -51z m-219 -241 c0 -7 -3 -23 -7 -36 -5 -21 -11 -23 -52 -20 l-46 3
-6 -60 c-4 -33 -7 -90 -8 -128 l-1 -67 28 6 c15 4 44 13 66 21 87 30 89 7 4
-41 -77 -42 -209 -96 -237 -96 -14 0 -27 11 -38 34 -22 48 -13 66 31 59 19 -3
51 -2 71 1 l37 7 -6 72 c-4 40 -9 98 -12 131 l-6 58 -60 -6 c-54 -7 -60 -5
-54 9 3 9 6 28 6 41 l0 24 145 0 c109 0 145 -3 145 -12z m-850 -673 c32 -16
37 -34 20 -66 -10 -18 -6 -19 104 -19 63 0 117 -3 119 -8 3 -4 3 -19 0 -34
l-5 -26 -135 1 -135 2 -27 -33 c-15 -17 -33 -32 -39 -32 -16 0 -16 -4 18 80
17 40 30 90 30 111 0 43 7 46 50 24z m-207 -44 c20 -48 22 -50 69 -56 48 -7
53 -13 39 -50 -7 -18 -16 -20 -75 -17 l-66 4 0 -35 c0 -31 3 -35 33 -41 18 -3
47 -3 64 0 l31 6 -5 -68 c-19 -304 -39 -430 -69 -455 -23 -19 -28 -2 -15 54
16 67 26 267 17 340 -7 54 -9 57 -35 57 l-27 0 -13 -114 c-20 -184 -68 -363
-92 -339 -7 7 -5 39 10 105 32 148 51 403 35 464 -4 16 -11 19 -35 16 -30 -4
-30 -4 -27 34 3 37 5 39 38 40 19 0 50 1 69 2 33 2 34 2 16 22 -10 11 -26 20
-37 20 -22 0 -23 18 -1 42 29 32 53 23 76 -31z m416 -152 c21 -38 9 -59 -36
-59 -61 0 -67 -8 -58 -86 l7 -68 29 34 c16 19 29 44 29 56 0 11 3 24 6 27 10
10 42 -11 55 -34 9 -17 7 -25 -13 -46 -12 -14 -42 -36 -65 -50 -37 -22 -42
-28 -37 -51 15 -68 39 -133 76 -200 38 -71 45 -99 22 -84 -6 4 -34 42 -63 86
-55 85 -85 168 -95 261 -15 140 -16 145 -35 145 -15 0 -19 -12 -24 -67 -10
-104 -8 -236 4 -293 8 -36 21 -61 45 -84 39 -38 42 -46 15 -46 -28 0 -69 37
-93 83 -18 36 -22 68 -29 216 -4 95 -11 186 -14 201 -8 36 3 42 47 28 42 -13
138 11 166 42 22 25 43 21 61 -11z"/>
<path d="M2495 3950 c-4 -6 1 -17 11 -25 11 -7 17 -16 14 -18 -7 -7 -220 -12
-240 -6 -10 3 -15 -3 -14 -18 0 -13 1 -50 2 -84 2 -51 5 -60 19 -57 10 2 28
21 40 43 20 36 27 41 70 47 63 8 256 8 313 0 39 -6 47 -12 68 -49 13 -24 30
-43 38 -43 10 0 14 12 14 43 0 23 3 59 6 80 l7 38 -49 -3 c-27 -1 -84 -1 -126
0 -76 2 -77 2 -80 30 -3 24 -8 27 -45 30 -23 2 -44 -2 -48 -8z"/>
<path d="M2510 3817 c0 -7 3 -17 8 -21 4 -4 12 -34 17 -67 6 -33 14 -61 20
-62 12 -3 27 68 23 118 -3 37 -5 40 -35 43 -23 2 -33 -1 -33 -11z"/>
<path d="M2627 3804 c-4 -4 -4 -17 -1 -29 9 -35 -14 -102 -48 -141 l-32 -36
-18 24 c-36 44 -60 109 -55 144 5 32 4 34 -22 34 -15 0 -35 -6 -45 -13 -17
-12 -17 -18 -6 -53 16 -50 52 -114 79 -138 12 -11 21 -22 21 -25 0 -13 -61
-42 -161 -75 -95 -32 -135 -56 -94 -56 34 0 180 42 240 69 61 28 62 28 96 10
42 -23 170 -64 227 -74 33 -5 42 -4 42 7 0 9 -23 21 -61 32 -74 20 -189 71
-189 84 0 5 12 19 26 33 32 29 70 103 79 151 7 38 9 36 -56 54 -8 2 -18 1 -22
-2z"/>
<path d="M2312 3714 c-34 -24 -27 -49 35 -109 67 -66 89 -61 44 11 -19 28 -31
61 -31 81 0 37 -13 42 -48 17z"/>
<path d="M2740 3703 c0 -14 -14 -51 -31 -81 -16 -29 -28 -59 -26 -65 5 -15
114 89 123 116 5 15 0 26 -16 39 -32 26 -50 23 -50 -9z"/>
<path d="M2505 3480 c-4 -6 -2 -16 3 -23 5 -7 13 -32 16 -57 4 -25 9 -57 12
-72 l6 -28 -81 0 -81 0 0 65 0 65 -45 0 c-50 0 -51 -1 -31 -33 8 -12 20 -56
27 -97 14 -86 23 -102 42 -76 12 17 31 19 180 20 155 1 167 0 181 -19 14 -19
15 -19 26 10 6 17 18 64 26 105 13 69 13 76 -3 87 -9 7 -30 13 -46 13 -24 0
-28 -3 -21 -17 4 -10 10 -42 12 -70 l4 -53 -77 0 -77 0 7 86 c5 68 4 88 -6 95
-19 12 -67 11 -74 -1z"/>
<path d="M3269 2998 c0 -2 -2 -17 -3 -35 -4 -34 -38 -99 -92 -174 -38 -52 -40
-59 -21 -59 15 0 140 126 175 177 12 17 22 37 22 45 0 15 -77 58 -81 46z"/>
<path d="M3426 2915 c-9 -47 -2 -56 37 -43 28 9 190 13 242 6 17 -3 20 3 20
32 l0 35 -146 3 -147 3 -6 -36z"/>
<path d="M3290 2801 c0 -30 -55 -119 -127 -208 -51 -62 -36 -72 27 -19 l55 45
6 -37 c4 -20 10 -110 14 -199 6 -124 11 -163 21 -163 20 0 22 20 29 241 5 150
4 208 -4 213 -8 5 1 21 24 49 43 50 44 72 5 92 -41 21 -50 19 -50 -14z"/>
<path d="M3488 2773 l-98 -4 0 -46 0 -45 33 6 c79 18 143 23 152 14 6 -5 11
-80 13 -169 3 -142 1 -168 -19 -235 -24 -79 -19 -104 11 -64 43 57 62 147 68
314 l5 158 47 -6 c52 -7 60 0 60 50 0 22 -4 24 -44 24 -24 0 -63 2 -87 3 -24
2 -88 2 -141 0z"/>
<path d="M2175 1933 c-3 -38 -15 -110 -26 -162 -23 -112 -22 -101 -5 -101 9 0
17 27 26 92 20 147 21 147 74 39 25 -52 46 -103 46 -113 0 -32 19 -19 30 20 5
20 29 71 52 112 41 75 42 75 50 45 4 -16 11 -67 14 -112 6 -72 9 -83 25 -83
22 0 22 -1 8 74 -5 31 -13 100 -17 153 -4 53 -12 98 -17 100 -6 2 -16 -18 -23
-44 -13 -46 -89 -193 -101 -193 -13 0 -70 107 -92 173 -13 37 -27 67 -30 67
-4 0 -10 -30 -14 -67z"/>
<path d="M2536 1983 c-4 -9 -1 -23 7 -30 12 -12 16 -12 26 1 16 19 8 46 -13
46 -7 0 -17 -8 -20 -17z"/>
<path d="M3183 1988 c3 -9 24 -12 70 -10 l65 3 7 -56 c4 -31 4 -101 0 -156 -6
-95 -6 -99 14 -99 20 0 20 4 14 128 -3 71 -3 141 1 156 7 27 8 27 73 24 46 -2
67 1 70 10 4 9 -32 12 -157 12 -125 0 -161 -3 -157 -12z"/>
<path d="M4442 1835 c0 -147 1 -165 16 -165 15 0 17 18 17 165 0 148 -2 165
-17 165 -15 0 -16 -17 -16 -165z"/>
<path d="M2663 1888 c-26 -12 -37 -39 -28 -67 3 -10 34 -33 71 -50 54 -26 65
-35 62 -53 -7 -47 -70 -49 -113 -2 -20 22 -23 23 -29 7 -9 -21 14 -40 67 -54
73 -19 134 22 113 77 -3 8 -35 28 -71 45 -54 24 -65 33 -65 53 0 40 51 49 92
16 26 -19 38 -18 38 6 0 14 -60 34 -95 33 -11 0 -30 -5 -42 -11z"/>
<path d="M2893 1888 c-26 -12 -37 -39 -28 -67 3 -10 34 -33 71 -50 54 -26 65
-35 62 -53 -7 -47 -70 -49 -113 -2 -20 22 -23 23 -29 7 -9 -21 14 -40 67 -54
73 -19 134 22 113 77 -3 8 -35 28 -71 45 -54 24 -65 33 -65 53 0 40 51 49 92
16 26 -19 38 -18 38 6 0 14 -60 34 -95 33 -11 0 -30 -5 -42 -11z"/>
<path d="M3542 1785 c1 -102 3 -115 18 -115 16 0 17 9 12 90 -3 67 -2 90 7 90
7 0 19 7 27 15 20 19 43 19 50 0 7 -17 24 -10 24 10 0 20 -33 27 -66 15 -20
-8 -30 -8 -32 -1 -2 6 -12 11 -22 11 -17 0 -19 -9 -18 -115z"/>
<path d="M3774 1893 c-12 -2 -30 -13 -39 -23 -16 -17 -15 -19 4 -30 17 -9 21
-8 21 5 0 21 43 39 73 31 31 -7 54 -61 30 -70 -8 -3 -24 -6 -36 -6 -36 -1
-105 -37 -112 -59 -10 -33 3 -58 37 -70 32 -11 73 -6 97 13 11 8 15 8 18 -1 3
-7 12 -13 21 -13 15 0 17 11 14 83 -4 114 -7 123 -43 136 -32 11 -46 12 -85 4z
m106 -136 c0 -46 -83 -94 -115 -67 -41 34 2 90 70 90 40 0 45 -2 45 -23z"/>
<path d="M4253 1885 c-90 -39 -80 -187 15 -215 31 -10 45 -9 74 3 41 17 66 51
46 63 -6 4 -14 2 -16 -5 -8 -25 -42 -51 -66 -51 -37 0 -67 30 -73 75 l-5 40
86 -1 c79 -2 86 0 86 18 0 32 -20 59 -55 74 -42 17 -51 17 -92 -1z m89 -22
c10 -9 18 -24 18 -35 0 -15 -8 -18 -55 -18 -65 0 -84 21 -46 52 29 22 59 23
83 1z"/>
<path d="M2540 1780 c0 -98 2 -110 18 -110 15 0 17 12 17 110 0 98 -2 110 -17
110 -16 0 -18 -12 -18 -110z"/>
<path d="M3965 1828 c18 -35 40 -84 50 -110 10 -27 20 -48 24 -47 4 0 83 151
109 212 2 4 -2 7 -10 7 -7 0 -29 -32 -48 -72 -19 -39 -39 -72 -45 -72 -5 -1
-23 32 -39 72 -24 58 -34 72 -52 72 -21 0 -21 -1 11 -62z"/>
</g>
</svg>
